<svg width="216" height="37" viewBox="0 0 216 37" fill="none" xmlns="http://www.w3.org/2000/svg">
<path d="M34.18 5.704C34.18 7.336 33.532 9.484 32.236 12.148C30.94 14.812 29.152 17.62 26.872 20.572C24.592 23.5 21.976 26.308 19.024 28.996C13.504 34.036 8.836 36.556 5.02 36.556C3.1 36.556 1.78 35.776 1.06 34.216C0.868 33.736 0.772 33.232 0.772 32.704C0.772 31 1.36 29.224 2.536 27.376C4.792 23.896 8.092 20.908 12.436 18.412C12.844 15.268 14.272 12.112 16.72 8.944C19.192 5.776 21.94 3.424 24.964 1.888C26.332 1.192 27.664 0.844 28.96 0.844C30.256 0.844 31.384 1.192 32.344 1.888C33.568 2.8 34.18 4.072 34.18 5.704ZM15.136 23.164C14.248 23.164 13.552 22.864 13.048 22.264C7.408 26.104 4.192 29.368 3.4 32.056C3.304 32.44 3.256 32.8 3.256 33.136C3.256 34.024 3.796 34.648 4.876 35.008C5.284 35.128 5.68 35.188 6.064 35.188C7.288 35.188 8.488 34.936 9.664 34.432C12.736 33.16 16.084 30.688 19.708 27.016C23.332 23.368 26.26 19.624 28.492 15.784C30.748 11.92 31.876 8.872 31.876 6.64C31.876 4.792 31.288 3.568 30.112 2.968C29.656 2.728 29.056 2.608 28.312 2.608C27.568 2.608 26.644 2.776 25.54 3.112C22.324 4.216 19.684 6.076 17.62 8.692C15.556 11.308 14.308 14.296 13.876 17.656C16.324 16.456 18.616 15.856 20.752 15.856C22.768 15.856 23.908 16.408 24.172 17.512C24.244 17.776 24.268 17.932 24.244 17.98C24.22 18.028 24.148 18.028 24.028 17.98C23.836 17.884 23.512 17.836 23.056 17.836C20.968 17.836 17.944 19.108 13.984 21.652C14.272 22.348 14.692 22.72 15.244 22.768C15.412 22.792 15.496 22.864 15.496 22.984C15.496 23.104 15.376 23.164 15.136 23.164ZM37.665 24.388C36.057 25.204 34.653 25.612 33.453 25.612C32.445 25.612 31.761 25.276 31.401 24.604C31.209 24.268 31.113 23.884 31.113 23.452C31.113 22.468 31.341 21.508 31.797 20.572C31.485 20.884 31.185 21.136 30.897 21.328C30.657 21.544 30.537 21.52 30.537 21.256C30.537 21.088 30.753 20.824 31.185 20.464C31.593 20.104 32.229 19.504 33.093 18.664C33.957 17.8 34.641 17.152 35.145 16.72C36.609 15.496 38.157 14.884 39.789 14.884C40.389 14.884 41.001 15.04 41.625 15.352C42.537 15.784 42.993 16.576 42.993 17.728C42.993 19.12 42.297 20.548 40.905 22.012C40.353 22.636 39.585 23.26 38.601 23.884C40.569 23.572 42.657 22.384 44.865 20.32C44.985 20.224 45.093 20.188 45.189 20.212C45.285 20.212 45.333 20.26 45.333 20.356C45.333 20.452 45.285 20.548 45.189 20.644C42.549 23.14 40.089 24.388 37.809 24.388C37.761 24.388 37.713 24.388 37.665 24.388ZM41.157 20.608C41.757 19.696 42.057 18.928 42.057 18.304C42.057 17.656 41.781 17.164 41.229 16.828C40.917 16.564 40.557 16.432 40.149 16.432C38.685 16.432 37.329 17.008 36.081 18.16C34.857 19.312 34.041 20.536 33.633 21.832C33.465 22.288 33.381 22.768 33.381 23.272C33.381 23.752 33.561 24.1 33.921 24.316C34.305 24.508 34.725 24.604 35.181 24.604C35.637 24.604 36.297 24.376 37.161 23.92C37.113 23.92 37.041 23.896 36.945 23.848C36.657 23.704 36.513 23.512 36.513 23.272C36.513 22.432 36.981 21.58 37.917 20.716C38.589 20.116 39.273 19.816 39.969 19.816C40.665 19.816 41.061 20.08 41.157 20.608ZM54.3707 16.936C54.7067 16.552 54.8747 16.252 54.8747 16.036C54.8747 15.82 54.6467 15.712 54.1907 15.712C53.7587 15.712 53.0627 16.132 52.1027 16.972C51.2147 17.74 50.1347 19.024 48.8627 20.824C47.6147 22.624 46.7027 23.848 46.1267 24.496C45.5747 25.12 45.0827 25.432 44.6507 25.432C44.6027 25.432 44.5547 25.432 44.5067 25.432C43.8827 25.432 43.2707 25.18 42.6707 24.676C42.8147 24.46 43.1627 23.992 43.7147 23.272C44.9387 21.784 46.0067 20.344 46.9187 18.952C45.8867 19.984 45.0107 20.788 44.2907 21.364C44.0507 21.556 43.9187 21.568 43.8947 21.4C43.8467 21.232 43.8947 21.088 44.0387 20.968C44.1827 20.824 44.4227 20.608 44.7587 20.32C45.0947 20.008 45.3107 19.804 45.4067 19.708C45.5267 19.612 45.7307 19.432 46.0187 19.168C46.3307 18.88 46.5587 18.652 46.7027 18.484C47.3747 17.692 47.8667 17.02 48.1787 16.468C48.2987 16.18 48.3467 15.904 48.3227 15.64C48.3227 15.352 48.2627 15.172 48.1427 15.1C48.0467 15.004 48.0107 14.896 48.0347 14.776C48.0347 14.584 48.1307 14.488 48.3227 14.488C48.4187 14.488 48.5267 14.512 48.6467 14.56C49.3907 14.896 49.7627 15.568 49.7627 16.576C49.7627 17.56 49.5467 18.616 49.1147 19.744C50.0507 18.52 50.7587 17.644 51.2387 17.116C52.4867 15.724 53.7107 15.028 54.9107 15.028C56.0867 15.028 56.7827 15.532 56.9987 16.54C57.0227 16.684 57.0347 16.912 57.0347 17.224C57.0347 17.512 56.9147 17.908 56.6747 18.412C56.4587 18.916 55.9307 19.744 55.0907 20.896C54.2507 22.048 53.7587 22.78 53.6147 23.092C53.4947 23.38 53.4587 23.596 53.5067 23.74C53.5547 23.884 53.6627 23.968 53.8307 23.992C54.1187 24.04 54.6107 23.848 55.3067 23.416C56.2907 22.72 57.5627 21.652 59.1227 20.212C59.3867 19.948 59.5187 19.972 59.5187 20.284C59.5187 20.404 59.4587 20.524 59.3387 20.644C57.0107 22.804 55.2827 24.148 54.1547 24.676C52.8347 25.348 51.8027 25.456 51.0587 25C50.6027 24.712 50.3747 24.316 50.3747 23.812C50.3747 23.284 50.4707 22.756 50.6627 22.228C51.0947 21.004 52.3307 19.24 54.3707 16.936ZM72.1386 19.456C71.8746 19.768 71.5986 20.104 71.3106 20.464C71.0466 20.824 70.6986 21.316 70.2666 21.94C69.8586 22.564 69.6546 23.092 69.6546 23.524C69.6546 23.956 69.8346 24.172 70.1946 24.172C70.5786 24.172 71.1906 23.944 72.0306 23.488C73.7106 22.528 75.5706 21.088 77.6106 19.168C77.8506 18.928 78.0066 18.892 78.0786 19.06C78.0786 19.084 78.0786 19.132 78.0786 19.204C78.0786 19.276 78.0306 19.36 77.9346 19.456C73.8066 23.344 70.8066 25.288 68.9346 25.288C68.3826 25.288 67.9146 25.108 67.5306 24.748C67.1706 24.364 66.9906 23.92 66.9906 23.416C66.9906 22.912 67.2066 22.144 67.6386 21.112C66.5586 22.456 65.3946 23.5 64.1466 24.244C62.9226 24.964 61.9626 25.324 61.2666 25.324C60.5706 25.324 59.9706 25.12 59.4666 24.712C58.9866 24.28 58.7466 23.752 58.7466 23.128C58.7466 21.352 59.5386 19.612 61.1226 17.908C62.3226 16.636 63.8106 15.736 65.5866 15.208C66.3786 14.944 67.1466 14.812 67.8906 14.812C68.6586 14.812 69.3906 15.028 70.0866 15.46C70.8066 15.868 71.2626 16.36 71.4546 16.936C72.1746 16.936 72.6906 17.2 73.0026 17.728C73.0506 17.8 73.0746 17.92 73.0746 18.088C73.0746 18.256 72.9786 18.448 72.7866 18.664C72.6186 18.88 72.4026 19.144 72.1386 19.456ZM69.5106 15.892C69.0066 15.892 68.4066 16.048 67.7106 16.36C66.4866 16.888 65.3226 17.8 64.2186 19.096C62.4666 21.16 61.5906 22.672 61.5906 23.632C61.5906 24.136 61.7946 24.388 62.2026 24.388C62.5386 24.388 63.0906 24.172 63.8586 23.74C64.6506 23.308 65.6826 22.456 66.9546 21.184C67.0266 21.112 67.3026 20.848 67.7826 20.392C68.2626 19.936 68.6706 19.54 69.0066 19.204C70.1346 18.028 70.6986 17.188 70.6986 16.684C70.6986 16.156 70.3026 15.892 69.5106 15.892ZM82.7378 12.652C83.2658 11.86 83.6858 11.236 83.9978 10.78C84.3338 10.3 84.5978 9.952 84.7898 9.736C84.9818 9.52 85.4138 9.34 86.0858 9.196C86.7578 9.028 87.4058 8.944 88.0298 8.944C88.6538 8.944 88.9658 9.016 88.9658 9.16C88.9658 9.28 88.4498 9.832 87.4178 10.816C86.3858 11.8 85.1858 13.108 83.8178 14.74C85.4498 15.004 86.5178 15.52 87.0218 16.288C87.2138 16.624 87.2378 16.84 87.0938 16.936C86.9738 17.032 86.8298 16.996 86.6618 16.828C86.1578 16.324 85.3538 16.072 84.2498 16.072C83.7698 16.072 83.2298 16.12 82.6298 16.216C80.6858 18.712 79.4618 20.752 78.9578 22.336C78.7898 22.792 78.7058 23.176 78.7058 23.488C78.7058 24.328 79.0538 24.748 79.7498 24.748C80.4938 24.748 81.5378 24.232 82.8818 23.2C84.6338 21.88 86.1578 20.572 87.4538 19.276C87.6938 19.012 87.8498 18.952 87.9218 19.096C87.9938 19.24 87.9338 19.396 87.7418 19.564C85.6778 21.724 83.9378 23.32 82.5218 24.352C81.1298 25.36 79.8458 25.864 78.6698 25.864C77.0618 25.864 76.2578 25.012 76.2578 23.308C76.2578 22.492 76.4858 21.52 76.9418 20.392L76.2938 21.004C76.1018 21.196 75.9698 21.256 75.8978 21.184C75.8018 21.088 75.7538 21.004 75.7538 20.932C75.7538 20.86 75.8498 20.74 76.0418 20.572C77.7938 19.036 78.9938 17.872 79.6418 17.08C79.1858 17.248 78.8738 17.26 78.7058 17.116C78.5618 16.972 78.4538 16.78 78.3818 16.54C78.3338 16.3 78.4538 16.012 78.7418 15.676C79.0538 15.316 79.4978 15.064 80.0738 14.92C80.6738 14.752 81.1178 14.656 81.4058 14.632C81.7658 14.104 82.2098 13.444 82.7378 12.652ZM96.1782 16.216C96.1782 15.904 95.9502 15.748 95.4942 15.748C94.6782 15.748 93.6822 16.324 92.5062 17.476C92.2182 17.764 91.6902 18.364 90.9222 19.276C90.1782 20.188 89.4462 21.232 88.7262 22.408L87.8262 24.388L87.9342 24.028C87.8862 24.124 87.8382 24.268 87.7902 24.46C87.6702 24.748 87.3222 24.988 86.7462 25.18C86.6262 25.228 86.5182 25.252 86.4222 25.252C86.1822 25.252 86.1582 25.072 86.3502 24.712C86.4462 24.472 86.7822 23.62 87.3582 22.156C87.9342 20.668 88.4022 19.48 88.7622 18.592C87.8262 19.624 86.9502 20.464 86.1342 21.112C85.8942 21.304 85.7262 21.328 85.6302 21.184C85.6062 21.16 85.5942 21.112 85.5942 21.04C85.5942 20.968 85.7022 20.836 85.9182 20.644C87.3822 19.372 88.5342 18.196 89.3742 17.116C89.9982 15.652 91.1382 13.624 92.7942 11.032C94.4742 8.416 96.1902 6.256 97.9422 4.552C99.1182 3.376 100.39 2.584 101.758 2.176C102.382 1.984 102.958 1.888 103.486 1.888C104.038 1.888 104.542 2.044 104.998 2.356C105.478 2.644 105.718 3.196 105.718 4.012C105.718 5.092 105.358 6.184 104.638 7.288C103.918 8.392 102.646 9.628 100.822 10.996C98.9982 12.34 97.3062 13.348 95.7462 14.02C95.4582 14.14 95.2902 14.128 95.2422 13.984C95.1942 13.816 95.3142 13.672 95.6022 13.552C96.9942 12.928 98.5542 11.944 100.282 10.6C102.034 9.256 103.198 8.116 103.774 7.18C104.374 6.22 104.674 5.452 104.674 4.876C104.674 4.276 104.422 3.976 103.918 3.976C103.342 3.976 102.43 4.456 101.182 5.416C99.3342 6.904 97.3902 8.98 95.3502 11.644C93.3342 14.308 91.5942 16.996 90.1302 19.708C90.8022 18.748 91.4142 17.956 91.9662 17.332C93.3102 15.82 94.6182 15.064 95.8902 15.064C97.0902 15.064 97.7982 15.592 98.0142 16.648C98.0382 16.792 98.0502 16.996 98.0502 17.26C98.0502 17.524 97.9542 17.92 97.7622 18.448C97.5942 18.952 97.0902 19.9 96.2502 21.292C95.4342 22.66 95.0262 23.488 95.0262 23.776C95.0262 24.064 95.1222 24.208 95.3142 24.208C95.5782 24.208 95.9742 24.04 96.5022 23.704C97.8462 22.864 99.5982 21.448 101.758 19.456C102.046 19.168 102.178 19.12 102.154 19.312C102.154 19.504 102.082 19.684 101.938 19.852C100.162 21.676 98.3262 23.2 96.4302 24.424C95.5422 25 94.7382 25.288 94.0182 25.288C93.8262 25.288 93.6462 25.264 93.4782 25.216C92.5422 25.024 92.0742 24.508 92.0742 23.668C92.0742 22.804 92.4102 21.844 93.0822 20.788C93.2022 20.62 93.6462 20.056 94.4142 19.096C95.5902 17.656 96.1782 16.696 96.1782 16.216ZM141.393 8.008C140.049 6.064 137.493 4.816 133.725 4.264C132.645 4.096 131.589 4.012 130.557 4.012C126.741 4.012 122.997 4.696 119.325 6.064C116.541 7.096 114.429 8.296 112.989 9.664C112.053 10.504 111.585 11.296 111.585 12.04C111.585 12.496 111.705 12.88 111.945 13.192C112.185 13.504 112.245 13.696 112.125 13.768C112.005 13.84 111.885 13.816 111.765 13.696C111.165 13 110.865 12.124 110.865 11.068C110.865 9.34 111.549 7.924 112.917 6.82C114.789 5.332 117.393 4.096 120.729 3.112C124.089 2.104 127.245 1.6 130.197 1.6C133.149 1.6 135.573 2.008 137.469 2.824C141.213 4.408 143.085 7.132 143.085 10.996C143.085 14.14 141.705 17.152 138.945 20.032C135.681 23.416 130.989 25.624 124.869 26.656C123.021 26.968 121.341 27.124 119.829 27.124C114.573 27.124 111.393 26.044 110.289 23.884C110.169 23.644 110.109 23.5 110.109 23.452C110.109 23.26 110.301 23.308 110.685 23.596C112.125 24.604 114.477 25.108 117.741 25.108C121.029 25.108 124.377 24.628 127.785 23.668C131.217 22.684 134.169 21.256 136.641 19.384C138.489 17.992 139.893 16.588 140.853 15.172C141.861 13.684 142.365 12.364 142.365 11.212C142.365 10.036 142.041 8.968 141.393 8.008ZM126.597 5.2H127.065C127.233 5.2 127.317 5.236 127.317 5.308C127.317 5.476 127.221 5.656 127.029 5.848C124.989 8.104 122.793 10.936 120.441 14.344C118.113 17.728 116.625 20.284 115.977 22.012C115.905 22.204 115.821 22.3 115.725 22.3C115.509 22.3 115.401 22.18 115.401 21.94C115.401 20.644 117.153 17.536 120.657 12.616C124.161 7.672 126.141 5.2 126.597 5.2ZM148.693 19.456C148.453 19.816 148.129 20.272 147.721 20.824C147.313 21.376 146.929 21.904 146.569 22.408C146.209 22.912 146.029 23.296 146.029 23.56C146.029 23.8 146.149 23.92 146.389 23.92C146.821 23.92 147.457 23.536 148.297 22.768L149.449 21.652C150.625 20.38 151.657 19.156 152.545 17.98L153.877 16.36C154.285 15.904 154.717 15.664 155.173 15.64C155.869 15.64 156.517 15.904 157.117 16.432C156.973 16.648 156.733 16.96 156.397 17.368C156.085 17.776 155.761 18.196 155.425 18.628C155.113 19.036 154.741 19.516 154.309 20.068C153.901 20.62 153.541 21.136 153.229 21.616C152.917 22.096 152.593 22.612 152.257 23.164C151.945 23.692 151.717 24.148 151.573 24.532C151.213 25.588 151.225 26.248 151.609 26.512C151.729 26.632 151.705 26.692 151.537 26.692C151.489 26.692 151.441 26.68 151.393 26.656C150.481 26.344 150.025 25.6 150.025 24.424C150.025 23.248 150.409 21.856 151.177 20.248C148.609 23.56 146.521 25.216 144.913 25.216C143.689 25.216 143.077 24.64 143.077 23.488C143.077 23.08 143.161 22.6 143.329 22.048C143.689 20.968 144.913 19.264 147.001 16.936C147.265 16.624 147.397 16.36 147.397 16.144C147.397 15.928 147.253 15.82 146.965 15.82C146.677 15.82 146.245 16.036 145.669 16.468C145.093 16.9 144.289 17.608 143.257 18.592C142.225 19.552 141.589 20.128 141.349 20.32C141.133 20.512 141.025 20.464 141.025 20.176C141.025 20.032 141.253 19.78 141.709 19.42C142.165 19.036 142.789 18.436 143.581 17.62C144.373 16.78 145.057 16.144 145.633 15.712C146.233 15.256 146.917 15.028 147.685 15.028C148.549 15.028 149.137 15.352 149.449 16C149.569 16.24 149.629 16.552 149.629 16.936C149.629 17.32 149.533 17.752 149.341 18.232C149.149 18.688 148.933 19.096 148.693 19.456ZM166.765 16.936C167.101 16.552 167.269 16.252 167.269 16.036C167.269 15.82 167.041 15.712 166.585 15.712C166.153 15.712 165.457 16.132 164.497 16.972C163.609 17.74 162.529 19.024 161.257 20.824C160.009 22.624 159.097 23.848 158.521 24.496C157.969 25.12 157.477 25.432 157.045 25.432C156.997 25.432 156.949 25.432 156.901 25.432C156.277 25.432 155.665 25.18 155.065 24.676C155.209 24.46 155.557 23.992 156.109 23.272C157.333 21.784 158.401 20.344 159.313 18.952C158.281 19.984 157.405 20.788 156.685 21.364C156.445 21.556 156.313 21.568 156.289 21.4C156.241 21.232 156.289 21.088 156.433 20.968C156.577 20.824 156.817 20.608 157.153 20.32C157.489 20.008 157.705 19.804 157.801 19.708C157.921 19.612 158.125 19.432 158.413 19.168C158.725 18.88 158.953 18.652 159.097 18.484C159.769 17.692 160.261 17.02 160.573 16.468C160.693 16.18 160.741 15.904 160.717 15.64C160.717 15.352 160.657 15.172 160.537 15.1C160.441 15.004 160.405 14.896 160.429 14.776C160.429 14.584 160.525 14.488 160.717 14.488C160.813 14.488 160.921 14.512 161.041 14.56C161.785 14.896 162.157 15.568 162.157 16.576C162.157 17.56 161.941 18.616 161.509 19.744C162.445 18.52 163.153 17.644 163.633 17.116C164.881 15.724 166.105 15.028 167.305 15.028C168.481 15.028 169.177 15.532 169.393 16.54C169.417 16.684 169.429 16.912 169.429 17.224C169.429 17.512 169.309 17.908 169.069 18.412C168.853 18.916 168.325 19.744 167.485 20.896C166.645 22.048 166.153 22.78 166.009 23.092C165.889 23.38 165.853 23.596 165.901 23.74C165.949 23.884 166.057 23.968 166.225 23.992C166.513 24.04 167.005 23.848 167.701 23.416C168.685 22.72 169.957 21.652 171.517 20.212C171.781 19.948 171.913 19.972 171.913 20.284C171.913 20.404 171.853 20.524 171.733 20.644C169.405 22.804 167.677 24.148 166.549 24.676C165.229 25.348 164.197 25.456 163.453 25C162.997 24.712 162.769 24.316 162.769 23.812C162.769 23.284 162.865 22.756 163.057 22.228C163.489 21.004 164.725 19.24 166.765 16.936ZM181.761 16.468C181.761 16.012 181.521 15.784 181.041 15.784C180.633 15.784 179.997 15.976 179.133 16.36C178.293 16.72 177.345 17.512 176.289 18.736C175.017 20.248 174.381 21.592 174.381 22.768C174.381 23.656 174.717 24.256 175.389 24.568C175.605 24.664 175.857 24.712 176.145 24.712C177.129 24.712 178.281 24.292 179.601 23.452C180.945 22.612 182.673 21.22 184.785 19.276C185.121 18.94 185.289 18.94 185.289 19.276C185.289 19.42 185.217 19.552 185.073 19.672C182.145 22.36 179.985 24.028 178.593 24.676C177.225 25.3 176.145 25.612 175.353 25.612C172.569 25.612 171.177 24.592 171.177 22.552C171.177 20.512 172.089 18.76 173.913 17.296C175.761 15.808 177.681 15.064 179.673 15.064C180.921 15.064 181.761 15.352 182.193 15.928C182.457 16.216 182.589 16.528 182.589 16.864C182.589 17.176 182.505 17.512 182.337 17.872C182.169 18.208 181.893 18.376 181.509 18.376C181.149 18.376 181.101 18.148 181.365 17.692C181.629 17.212 181.761 16.804 181.761 16.468ZM196.838 19.456C196.574 19.768 196.298 20.104 196.01 20.464C195.746 20.824 195.398 21.316 194.966 21.94C194.558 22.564 194.354 23.092 194.354 23.524C194.354 23.956 194.534 24.172 194.894 24.172C195.278 24.172 195.89 23.944 196.73 23.488C198.41 22.528 200.27 21.088 202.31 19.168C202.55 18.928 202.706 18.892 202.778 19.06C202.778 19.084 202.778 19.132 202.778 19.204C202.778 19.276 202.73 19.36 202.634 19.456C198.506 23.344 195.506 25.288 193.634 25.288C193.082 25.288 192.614 25.108 192.23 24.748C191.87 24.364 191.69 23.92 191.69 23.416C191.69 22.912 191.906 22.144 192.338 21.112C191.258 22.456 190.094 23.5 188.846 24.244C187.622 24.964 186.662 25.324 185.966 25.324C185.27 25.324 184.67 25.12 184.166 24.712C183.686 24.28 183.446 23.752 183.446 23.128C183.446 21.352 184.238 19.612 185.822 17.908C187.022 16.636 188.51 15.736 190.286 15.208C191.078 14.944 191.846 14.812 192.59 14.812C193.358 14.812 194.09 15.028 194.786 15.46C195.506 15.868 195.962 16.36 196.154 16.936C196.874 16.936 197.39 17.2 197.702 17.728C197.75 17.8 197.774 17.92 197.774 18.088C197.774 18.256 197.678 18.448 197.486 18.664C197.318 18.88 197.102 19.144 196.838 19.456ZM194.21 15.892C193.706 15.892 193.106 16.048 192.41 16.36C191.186 16.888 190.022 17.8 188.918 19.096C187.166 21.16 186.29 22.672 186.29 23.632C186.29 24.136 186.494 24.388 186.902 24.388C187.238 24.388 187.79 24.172 188.558 23.74C189.35 23.308 190.382 22.456 191.654 21.184C191.726 21.112 192.002 20.848 192.482 20.392C192.962 19.936 193.37 19.54 193.706 19.204C194.834 18.028 195.398 17.188 195.398 16.684C195.398 16.156 195.002 15.892 194.21 15.892ZM210.605 16.936C210.941 16.552 211.109 16.252 211.109 16.036C211.109 15.82 210.881 15.712 210.425 15.712C209.993 15.712 209.297 16.132 208.337 16.972C207.449 17.74 206.369 19.024 205.097 20.824C203.849 22.624 202.937 23.848 202.361 24.496C201.809 25.12 201.317 25.432 200.885 25.432C200.837 25.432 200.789 25.432 200.741 25.432C200.117 25.432 199.505 25.18 198.905 24.676C199.049 24.46 199.397 23.992 199.949 23.272C201.173 21.784 202.241 20.344 203.153 18.952C202.121 19.984 201.245 20.788 200.525 21.364C200.285 21.556 200.153 21.568 200.129 21.4C200.081 21.232 200.129 21.088 200.273 20.968C200.417 20.824 200.657 20.608 200.993 20.32C201.329 20.008 201.545 19.804 201.641 19.708C201.761 19.612 201.965 19.432 202.253 19.168C202.565 18.88 202.793 18.652 202.937 18.484C203.609 17.692 204.101 17.02 204.413 16.468C204.533 16.18 204.581 15.904 204.557 15.64C204.557 15.352 204.497 15.172 204.377 15.1C204.281 15.004 204.245 14.896 204.269 14.776C204.269 14.584 204.365 14.488 204.557 14.488C204.653 14.488 204.761 14.512 204.881 14.56C205.625 14.896 205.997 15.568 205.997 16.576C205.997 17.56 205.781 18.616 205.349 19.744C206.285 18.52 206.993 17.644 207.473 17.116C208.721 15.724 209.945 15.028 211.145 15.028C212.321 15.028 213.017 15.532 213.233 16.54C213.257 16.684 213.269 16.912 213.269 17.224C213.269 17.512 213.149 17.908 212.909 18.412C212.693 18.916 212.165 19.744 211.325 20.896C210.485 22.048 209.993 22.78 209.849 23.092C209.729 23.38 209.693 23.596 209.741 23.74C209.789 23.884 209.897 23.968 210.065 23.992C210.353 24.04 210.845 23.848 211.541 23.416C212.525 22.72 213.797 21.652 215.357 20.212C215.621 19.948 215.753 19.972 215.753 20.284C215.753 20.404 215.693 20.524 215.573 20.644C213.245 22.804 211.517 24.148 210.389 24.676C209.069 25.348 208.037 25.456 207.293 25C206.837 24.712 206.609 24.316 206.609 23.812C206.609 23.284 206.705 22.756 206.897 22.228C207.329 21.004 208.565 19.24 210.605 16.936Z" fill="#555555"/>
</svg>
